# xmcd
#
# Track frame offsets:
#	150
#	14952
#	30193
#	46324
#	63258
#	83601
#	102506
#	117114
#	134342
#	152048
#	166913
#	185569
#	199351
#
# Disc length: 2868 seconds
#
# Revision: 1
# Processed by: cddbd v1.5.2PL0 Copyright (c) Steve Scherf et al.
# Submitted via: audiograbber 1.83.01
#
DISCID=aa0b320d
DTITLE=Padre Alessandro Campos - O que é que eu sou sem jesus?
DYEAR=2014
DGENRE=Gospel
TTITLE0=O que é que eu sou sem jesus?(nada, nada, nada)
TTITLE1=No dia em que sai de casa
TTITLE2=Meu Velho pai
TTITLE3=Maria
TTITLE4=Esse é o Meu Deus
TTITLE5=Noites Traiçoeiras
TTITLE6=O Milagre de Tambaú
TTITLE7=Chico Mineiro
TTITLE8=Caboclo na Cidade
TTITLE9=O Ipê e o Prisioneiro
TTITLE10=O Ultimo Julgamento
TTITLE11=Alô Meu Deus
TTITLE12=Vida nova
EXTD=
EXTT0=(O que é que eu sou sem você? nada, nada, nada)
EXTT1=
EXTT2=
EXTT3=
EXTT4=
EXTT5=
EXTT6=
EXTT7=
EXTT8=
EXTT9=
EXTT10=
EXTT11=
EXTT12=
PLAYORDER=
